<?xml version="1.0" encoding="utf-8"?>
<!-- Generator: Adobe Illustrator 23.0.4, SVG Export Plug-In . SVG Version: 6.00 Build 0)  -->
<svg version="1.1" id="Laag_2" xmlns="http://www.w3.org/2000/svg" xmlns:xlink="http://www.w3.org/1999/xlink" x="0px" y="0px"
	 viewBox="0 0 814.1 740.5" style="enable-background:new 0 0 814.1 740.5;" xml:space="preserve">
<style type="text/css">
	.st0{display:none;stroke:#FFFFFF;stroke-miterlimit:10;}
	.st1{fill:#FFFFFF;}
</style>
<rect x="-254.9" class="st0" width="1710.2" height="740.5"/>
<g>
	<path class="st1" d="M257.8,269.1c-11.4,10.7-24.5,19.2-39.4,25.7c-16.2,7.1-33.6,10.6-52.2,10.6c-18.4,0-35.6-3.5-51.9-10.6
		S83.9,278.1,71.8,266c-12.1-12.1-21.7-26.3-28.8-42.5c-7.1-16.2-10.6-33.6-10.6-52.2c0-18.4,3.5-35.7,10.6-52.1
		c7.1-16.4,16.6-30.6,28.8-42.7c12.1-12.1,26.3-21.7,42.5-28.8s33.5-10.6,51.9-10.6c18.6,0,36,3.5,52.2,10.6
		c14.9,6.5,28.1,15.1,39.6,25.9l-31.3,36.9c-0.2-0.2-0.5-0.5-0.7-0.7c-7.6-8-16.6-14.4-26.8-19.2c-10.2-4.8-21.2-7.2-32.9-7.2
		c-11.7,0-22.7,2.4-32.9,7.2c-10.2,4.8-19.1,11.2-26.8,19.2c-7.6,8-13.7,17.4-18.1,28.1c-4.5,10.7-6.7,21.8-6.7,33.4
		c0,11.8,2.2,22.9,6.7,33.5s10.5,19.9,18.1,28.1c7.6,8.1,16.6,14.6,26.8,19.4c10.2,4.8,21.2,7.2,32.9,7.2c11.7,0,22.7-2.4,32.9-7.2
		c10.2-4.8,19.1-11.3,26.8-19.4c0.2-0.2,0.4-0.5,0.7-0.7L257.8,269.1z"/>
	<path class="st1" d="M148.4,611.6H46.6V353.3h101.8c36.9,0,67.2,10.8,90.9,32.5c12.7,11.5,22.3,25.5,28.7,41.8
		c6.5,16.4,9.7,34.6,9.7,54.9c0,20.5-3.2,38.9-9.7,55.2c-6.5,16.4-16,30.3-28.7,41.8c-11.5,10.6-25,18.6-40.4,24
		C183.6,608.9,166.7,611.6,148.4,611.6z M96,567.8h52.6c9.2,0,18.5-1.1,27.9-3.2c9.4-2.1,17.9-6.3,25.6-12.5
		c7.6-6.2,13.9-14.9,18.9-25.9c4.9-11.1,7.4-25.5,7.4-43.4c0-17.9-2.5-32.4-7.4-43.6c-4.9-11.2-11.3-19.8-19.1-25.9
		c-7.8-6.1-16.4-10.2-25.8-12.4c-9.4-2.1-18.6-3.2-27.5-3.2H96V567.8z"/>
	<path class="st1" d="M417.8,305.3c-18.4,0-35.6-3.5-51.9-10.6s-30.4-16.6-42.5-28.8c-12.1-12.1-21.7-26.3-28.8-42.5
		c-7.1-16.2-10.6-33.6-10.6-52.2c0-18.4,3.5-35.7,10.6-52.1c7.1-16.4,16.6-30.6,28.8-42.7c12.1-12.1,26.3-21.7,42.5-28.8
		s33.5-10.6,51.9-10.6c18.6,0,36,3.5,52.2,10.6s30.4,16.6,42.5,28.8c12.1,12.1,21.7,26.4,28.8,42.7c7.1,16.4,10.6,33.7,10.6,52.1
		c0,18.6-3.5,36-10.6,52.2c-7.1,16.2-16.6,30.4-28.8,42.5c-12.1,12.1-26.3,21.7-42.5,28.8C453.8,301.8,436.4,305.3,417.8,305.3z
		 M418,83.3c-11.7,0-22.7,2.4-32.9,7.2c-10.2,4.8-19.1,11.2-26.8,19.2c-7.6,8-13.7,17.4-18.1,28.1c-4.5,10.7-6.7,21.8-6.7,33.4
		c0,11.8,2.2,22.9,6.7,33.5c4.5,10.6,10.5,19.9,18.1,28.1c7.6,8.1,16.6,14.6,26.8,19.4c10.2,4.8,21.2,7.2,32.9,7.2
		c11.7,0,22.7-2.4,32.9-7.2c10.2-4.8,19.1-11.3,26.8-19.4c7.6-8.1,13.7-17.5,18.1-28.1s6.7-21.8,6.7-33.5c0-11.5-2.2-22.6-6.7-33.4
		c-4.5-10.7-10.5-20.1-18.1-28.1c-7.6-8-16.6-14.4-26.8-19.2C440.7,85.8,429.7,83.3,418,83.3z"/>
	<polygon class="st1" points="760.3,349.9 630.1,502.5 500.2,349.9 500.2,425.2 630.1,578.1 710.9,481 710.9,611.6 760.3,611.6 	"/>
	<polygon class="st1" points="548.9,611.6 326.7,349.9 326.7,424.7 448.2,568.5 326.7,568.5 326.7,611.6 	"/>
</g>
</svg>
